HIERARCHY
ROOT pelvis
{
  OFFSET 0 100 0
  CHANNELS 6 Xposition Yposition Zposition Zrotation Xrotation Yrotation
  JOINT pelvis_right_femur
  {
    OFFSET -10.78128 -3.44521 -0.5502486
    CHANNELS 3 Zrotation Xrotation Yrotation
    JOINT right_femur_tibia
    {
      OFFSET -0.8047443 -44.0398 -0.1307829
      CHANNELS 3 Zrotation Xrotation Yrotation
      JOINT right_tibia_foot
      {
        OFFSET 3.006224 -47.83518 -5
        CHANNELS 3 Zrotation Xrotation Yrotation
        End Site
        {
          OFFSET 0 -5 15
        }
      }
    }
  }
  JOINT pelvis_left_femur
  {
    OFFSET 10.78128 -3.44521 -0.5502486
    CHANNELS 3 Zrotation Xrotation Yrotation
    JOINT left_femur_tibia
    {
      OFFSET 0.8047443 -44.0398 -0.1307829
      CHANNELS 3 Zrotation Xrotation Yrotation
      JOINT left_tibia_foot
      {
        OFFSET -4.370144 -48.10324 -4.275266
        CHANNELS 3 Zrotation Xrotation Yrotation
        End Site
        {
          OFFSET 0 -5 15
        }
      }
    }
  }
  JOINT pelvis_spine1
  {
    OFFSET 0 6.468898 -3.129235
    CHANNELS 3 Zrotation Xrotation Yrotation
    JOINT spine1
    {
      OFFSET 0 23.15396 4.99043
      CHANNELS 3 Zrotation Xrotation Yrotation
      JOINT spine2
      {
        OFFSET 0 20.79997 -5.064912
        CHANNELS 3 Zrotation Xrotation Yrotation
        JOINT neck
        {
          OFFSET 0 14.38658 9.616178
          CHANNELS 3 Zrotation Xrotation Yrotation
          End Site
          {
            OFFSET 0 20 0
          }
        }
      }
      JOINT right_manubrium
      {
        OFFSET -5.722621 16.35077 3.967754
        CHANNELS 3 Zrotation Xrotation Yrotation
        JOINT right_clavicle
        {
          OFFSET -13.16364 1.694482 -4.693211
          CHANNELS 3 Zrotation Xrotation Yrotation
          JOINT right_humerus
          {
            OFFSET -28.5034 -0.3100689 -2.792744
            CHANNELS 3 Zrotation Xrotation Yrotation
            JOINT right_radius
            {
              OFFSET -25.15693 0.02248979 -1.271978
              CHANNELS 3 Zrotation Xrotation Yrotation
              End Site
              {
                OFFSET -15 0 0
              }
            }
          }
        }
      }
      JOINT left_manubrium
      {
        OFFSET 5.722621 16.35077 3.967754
        CHANNELS 3 Zrotation Xrotation Yrotation
        JOINT left_clavicle
        {
          OFFSET 13.16364 1.694482 -4.693211
          CHANNELS 3 Zrotation Xrotation Yrotation
          JOINT left_humerus
          {
            OFFSET 29.39168 -1.063119 -2.237045
            CHANNELS 3 Zrotation Xrotation Yrotation
            JOINT left_radius
            {
              OFFSET 24.59957 -0.9528479 0.9047498
              CHANNELS 3 Zrotation Xrotation Yrotation
              End Site
              {
                OFFSET 15 -0 -0
              }
            }
          }
        }
      }
    }
  }
}
MOTION
Frames: 7
Frame Time: 0.0416666666667
-1150.014 102.8986 2388.216 -1.548986 1.645343 -59.96327 8.636047 -15.24189 4.429166 -0 14.88333 -0 -8.918006 -3.475207 -3.606356 -2.739631 3.691769 -7.867163 -0 59.7587 -0 -4.116063 -4.260887 10.38539 -3.324177 -0.03308522 5.328667 -2.17114 10.68954 -5.883795 -0.4329179 21.23247 8.56058 10.15799 -15.46995 2.32555 3.10065 -19.60865 10.16259 87.34475 36.89619 -14.72193 -0 0 18.08385 -23.20835 3.738746 3.853464 10.72286 -25.04368 -5.295062 -87.42234 4.050064 14.79886 0 0 -10.3994 14.46747 8.956207 -11.71532
-1154.948 104.6277 2390.999 -2.191417 0.05595312 -60.78707 7.064751 -8.457607 3.457664 -0 12.98921 -0 -9.05715 -5.65048 -2.777664 -2.960859 -4.096875 -7.656243 -0 65.14359 -0 -4.239548 -3.627396 10.71966 -3.033865 0.005412867 5.350778 -2.187825 10.77835 -5.551913 -0.4236571 21.4149 8.587424 10.07792 -15.41607 2.433282 3.085392 -19.59046 10.30733 87.05593 36.25419 -14.22993 -0 0 18.00145 -23.49247 4.021565 4.432649 10.31514 -24.79172 -5.551113 -88.12347 4.519421 15.93988 0 0 -8.790919 14.25354 9.313685 -11.00169
-1159.51 106.0147 2393.566 -2.54867 -1.722114 -61.36087 5.152309 -2.620669 2.532637 -0 10.80988 -0 -8.261579 -7.279063 -1.799251 -2.930661 -11.37217 -7.150293 -0 64.70817 -0 -4.097571 -4.257197 11.41104 -2.578038 -0.00961709 5.402314 -2.131159 11.03068 -5.118467 -0.3792299 21.66815 8.472898 9.806052 -15.36125 2.566734 3.009509 -19.66639 10.56582 86.64945 34.9496 -13.58737 -0 0 17.96148 -23.77923 4.62387 5.304531 9.648588 -24.51615 -6.062271 -89.15865 5.286665 17.63142 0 0 -6.868538 14.03001 9.931891 -9.961283
-1163.934 106.7162 2395.992 -3.071086 -2.634195 -61.79757 4.502868 2.214857 2.397213 -0 9.170039 -0 -7.419273 -9.472236 -1.296942 -1.463465 -17.50857 -5.913735 -0 57.60721 -0 -3.878759 -4.947879 13.21628 -1.996652 -0.1448721 5.555783 -1.996047 11.42205 -4.566697 -0.2838188 21.93814 8.209682 9.265627 -15.33238 2.800467 2.871538 -20.06284 10.93975 86.01675 33.01498 -12.52917 -0 0 18.30035 -24.01644 5.613371 6.593696 8.667266 -24.09347 -6.682834 -90.67034 6.313925 20.2677 0 0 -4.423696 13.6522 10.86051 -8.375643
-1168.376 106.5862 2398.484 -4.070103 -2.673127 -62.35219 5.176914 6.713521 2.246588 -0 7.716033 -0 -7.264907 -11.65244 -1.214452 1.193233 -22.03255 -3.753487 -0 45.73273 -0 -3.316803 -4.952083 15.32502 -1.451465 -0.4340691 5.975494 -1.739684 11.89285 -4.153565 -0.2614728 21.94679 7.863394 8.550392 -15.38039 2.99217 2.643073 -21.11142 11.34558 85.3863 30.93158 -11.31746 -0 0 19.49743 -23.89179 6.66629 7.86433 7.490267 -23.71019 -7.220614 -92.38106 6.998875 23.91526 0 0 -2.1429 12.89224 11.53927 -6.214888
-1172.899 105.832 2401.183 -4.866406 -2.326293 -63.01521 5.873931 10.59244 1.537986 -0 6.921373 -0 -7.630857 -13.36763 -1.062314 3.436896 -24.701 -1.899603 -0 33.20109 -0 -2.49378 -4.542018 16.52988 -1.037737 -0.822586 6.671719 -1.30307 12.45086 -4.155544 -0.4316236 21.54306 7.461695 7.757217 -15.50338 2.953106 2.342466 -22.78476 11.7428 85.12218 29.03759 -10.56943 -0 0 21.38397 -23.07609 7.530607 8.639849 6.235283 -23.66984 -7.669102 -93.74192 6.949868 28.05577 0 0 -1.096074 11.84388 11.52299 -3.713411
-1177.555 104.7814 2404.143 -4.915091 -1.746861 -63.6627 6.018273 13.54632 0.9771866 -0 7.16253 -0 -7.627093 -14.92256 -0.7724949 4.715479 -26.17427 -0.8534349 -0 22.97624 -0 -1.989804 -4.075845 16.74493 -0.7351816 -1.223264 7.370278 -0.7559139 13.07557 -4.474649 -0.6568291 20.97749 6.924778 6.836409 -15.63997 2.782809 2.028468 -24.5766 12.12836 85.22958 27.23546 -10.33668 -0 0 23.22427 -21.81348 8.405284 9.116336 4.99702 -23.83906 -8.048238 -94.50987 6.640022 31.7661 0 0 -1.422498 10.8538 11.26616 -1.273393
